# xmcd
#
# Track frame offsets: 
#        150
#        24275
#        45123
#        66731
#        83146
#        102440
#        121614
#        144583
#        164852
#        181550
#        199613
#        220990
#        239065
#
# Disc length: 3428 seconds
#
# Revision: 0
# Processed by: cddbd v1.5.2PL0 Copyright (c) Steve Scherf et al.
# Submitted via: ExactAudioCopyFreeDBPlugin 1.0
#
DISCID=b30d620d
DTITLE=Wolfgang Buck - Des Gwärch and Des Meer
DYEAR=2018
DGENRE=Blues
TTITLE0=Alles Hinderlässd Schburn
TTITLE1=Di Sunna Douder Goud
TTITLE2=Flüchdlingskinder
TTITLE3=Dohie Wu Er Will
TTITLE4=As Eis
TTITLE5=Wenni Scho Siech Wie Bleed Der Schaud
TTITLE6=Su Kammers Aushaldn
TTITLE7=Der Sänger Am Klavier
TTITLE8=Wenns Weh Dud Sohngsis Fei
TTITLE9=Mier Werfm Diech In Himml Nauf
TTITLE10=Di Zwaa Hans
TTITLE11=Ieber Mier Zäing Di Wolkn 
TTITLE12=Des Meer
EXTD=
EXTT0=
EXTT1=
EXTT2=
EXTT3=
EXTT4=
EXTT5=
EXTT6=
EXTT7=
EXTT8=
EXTT9=
EXTT10=
EXTT11=
EXTT12=
PLAYORDER=
